# xmcd
# 
# Track frame offsets:
#     150
#     13897
#     31338
#     50682
#     65803
#     84063
#     104227
#     118905
#     136136
#     149597
#     166627
#     196295
# 
# Disc length: 2850
# 
# Revision: 7
# Processed by: cddbd v1.5.2PL0 Copyright (c) Steve Scherf et al.
# Submitted via: fre:ac v1.0.31
# 
DISCID=ad0b200c
DTITLE=Alabama Shakes - Sound and Color
DYEAR=2015
DGENRE=Blues
TTITLE0=Sound and Color
TTITLE1=Don't Wanna Fight
TTITLE2=Dunes
TTITLE3=Future People
TTITLE4=Gimme All Your Love
TTITLE5=This Feeling
TTITLE6=Guess Who
TTITLE7=The Greatest
TTITLE8=Shoegaze
TTITLE9=Miss You
TTITLE10=Gemini
TTITLE11=Over My Head
EXTD=YEAR: 2015
EXTT0=
EXTT1=
EXTT2=
EXTT3=
EXTT4=
EXTT5=
EXTT6=
EXTT7=
EXTT8=
EXTT9=
EXTT10=
EXTT11=
PLAYORDER=
